<svg id="Layer_1" data-name="Layer 1" xmlns="http://www.w3.org/2000/svg" viewBox="0 0 465.15 465.15"><defs><style>.cls-1,.cls-3{fill:none;}.cls-2{fill:#fff;}.cls-3{stroke:#fff;stroke-miterlimit:10;stroke-width:10px;}</style></defs><path class="cls-1" d="M255.34,188.64c-61,0-110.44,12.74-110.44,28.45,0,4.41,4,8.56,10.92,12.28a75.86,75.86,0,0,0,10.6,4.55,149.5,149.5,0,0,0,17,4.74c19.33,4.27,44.43,6.88,71.94,6.88,26.52,0,50.84-2.42,69.87-6.42a156.66,156.66,0,0,0,19.06-5.21,74.34,74.34,0,0,0,10.6-4.55c6.92-3.73,10.92-7.87,10.92-12.28C365.79,201.38,316.34,188.64,255.34,188.64Z" transform="translate(-17.75 -13.83)"/><circle class="cls-1" cx="236.96" cy="312.29" r="21.89"/><path class="cls-2" d="M255.34,274.54c-41.66,0-83.58-5.63-112.59-16.58a113.68,113.68,0,0,1-14.24-6.47l1.17,11.16h0c2,33,25.75,60.05,83.89,67.9a41.35,41.35,0,0,0,82.25.25c59.62-7.5,83.41-35.48,85.45-68.8h0l.91-10.51A115.94,115.94,0,0,1,367.94,258C338.93,268.91,297,274.54,255.34,274.54ZM254.71,348a21.89,21.89,0,1,1,21.89-21.89A21.89,21.89,0,0,1,254.71,348Z" transform="translate(-17.75 -13.83)"/><path class="cls-2" d="M329.51,203.72c-17.3-5.55-43.44-9.1-72.73-9.1s-60.91,4.19-78.31,9.41c-8.1,2.43-13.19,3.78-17.83,7.78-2.5,2.15-2.24,6.7.32,8.78,15.75,12.77,64.36,14.83,97.37,14.83,32.61,0,74.68-4.16,89.41-15.8a4.07,4.07,0,0,0,.63-5.91C345,210,338.42,206.59,329.51,203.72Z" transform="translate(-17.75 -13.83)"/><path class="cls-2" d="M385.87,206.07V131.46H355.75v50.2h20.08v18.27c-16.08-8.13-40.76-14.49-70.28-17.92V98.84H275.42V149h20.09V181c-12.75-1.15-26.19-1.79-40.17-1.79s-27.42.64-40.16,1.79V98.84H185.06V149h20.08v33c-29.53,3.43-54.2,9.8-70.28,17.92V131.46H104.74v50.2h20.08v24.4c-6.42,4.89-10,10.19-10,15.77,0,6,4.18,11.77,11.62,17,5.64,3.94,13.2,7.57,22.32,10.79,25.77,9.12,63.93,14.91,106.62,14.91S336.2,258.7,362,249.58c9.11-3.22,16.68-6.85,22.33-10.79,7.43-5.2,11.61-10.94,11.61-17C395.91,216.25,392.28,211,385.87,206.07Zm-31,23.29a74.34,74.34,0,0,1-10.6,4.55,156.66,156.66,0,0,1-19.06,5.21c-19,4-43.35,6.42-69.87,6.42-27.51,0-52.61-2.61-71.94-6.88a149.5,149.5,0,0,1-17-4.74,75.86,75.86,0,0,1-10.6-4.55c-6.92-3.72-10.92-7.87-10.92-12.28,0-15.71,49.45-28.45,110.44-28.45s110.45,12.74,110.45,28.44C365.79,221.49,361.79,225.63,354.87,229.36Z" transform="translate(-17.75 -13.83)"/><path class="cls-2" d="M242.19,370.33,254.71,394l12.52-23.64A45.54,45.54,0,0,1,242.19,370.33Z" transform="translate(-17.75 -13.83)"/><circle class="cls-3" cx="232.57" cy="232.57" r="227.57"/></svg>