<svg id="Layer_1" data-name="Layer 1" xmlns="http://www.w3.org/2000/svg" xmlns:xlink="http://www.w3.org/1999/xlink" viewBox="0 0 300.32 96.26"><defs><style>.cls-1{fill:none;}.cls-2{fill:#fff;}.cls-3{clip-path:url(#clip-path);}</style><clipPath id="clip-path"><rect class="cls-1" width="300.32" height="96.26"/></clipPath></defs><title>infarma-logo</title><polygon class="cls-2" points="8.67 0 0 62.54 11.92 62.54 20.56 0 8.67 0"/><g class="cls-3"><path class="cls-2" d="M21.57,62.54l6.21-41.75h12l-.74,4.66a27.31,27.31,0,0,1,6.85-4.17A19,19,0,0,1,53,19.94c3.54,0,6.32,1,8.34,3.06a11.48,11.48,0,0,1,3,8.4c0,.82,0,1.62-.1,2.38S64.1,35.31,64,36L60,62.54H47.74L51.53,37.3c.11-.79.2-1.52.28-2.17s.07-1.14.07-1.54a5.14,5.14,0,0,0-1-3.31,3.16,3.16,0,0,0-2.62-1.21,10.53,10.53,0,0,0-5.12,1.56,24.82,24.82,0,0,0-5.49,4.68L33.59,62.54Z"/><path class="cls-2" d="M66.36,96.16l10-65.73H67.82l1.45-9.64h8.49q1.58-10,6.62-15.29A17.32,17.32,0,0,1,97.51.21a24,24,0,0,1,4.5.45A48,48,0,0,1,107.43,2L106.1,12.1a35.73,35.73,0,0,0-3.92-1A14.85,14.85,0,0,0,99,10.74,7.73,7.73,0,0,0,93,13.22c-1.51,1.62-2.54,4.15-3.13,7.57h8.84l-1.44,9.64H88.48L78.42,96.26Z"/><path class="cls-2" d="M123.58,62.54l.43-3.27a24.29,24.29,0,0,1-5.82,3.09,17.62,17.62,0,0,1-5.72,1,13.17,13.17,0,0,1-10.55-4.64Q98,54,98,46.1a25.27,25.27,0,0,1,2.15-10.37,22.46,22.46,0,0,1,6.14-8.2,25.71,25.71,0,0,1,10.11-5.21c3.84-1,10.05-1.53,18.56-1.53h6.87l-6.13,41.75Zm1.82-12,2.86-19.79-.91-.06c-.33,0-.84,0-1.52,0-4.87,0-8.75,1.41-11.59,4.2S110,41.53,110,46.28a8.65,8.65,0,0,0,1.65,5.56,5.49,5.49,0,0,0,4.47,2,13.3,13.3,0,0,0,4.55-.79,20.88,20.88,0,0,0,4.75-2.48"/><path class="cls-2" d="M145.6,62.54l6.27-41.75h12l-.79,5.76a33,33,0,0,1,5.58-5.3,7.71,7.71,0,0,1,4.16-1.31,10,10,0,0,1,3.56.71,19.34,19.34,0,0,1,4,2.11l-5.87,12.73a15.11,15.11,0,0,0-3.08-2.67,5.2,5.2,0,0,0-2.69-.86,6,6,0,0,0-3.66,1.43,17.26,17.26,0,0,0-3.73,4.25l-3.7,24.9Z"/><path class="cls-2" d="M181.32,62.54l6.22-41.75h12.1l-.69,5a20.55,20.55,0,0,1,6.47-4.4,19,19,0,0,1,7.47-1.46,11.42,11.42,0,0,1,6.43,1.68A10.93,10.93,0,0,1,223.16,27a41.11,41.11,0,0,1,8.28-5.27,18,18,0,0,1,7.45-1.76c3.74,0,6.62,1,8.66,3.06s3,4.94,3,8.71a35.72,35.72,0,0,1-.24,3.82c-.16,1.57-.42,3.56-.76,6l-3.13,21H234.18L238.24,36a.58.58,0,0,0,0-.24c.09-.89.14-1.51.18-1.92a5.39,5.39,0,0,0-1-3.6,4,4,0,0,0-3.16-1.18,10.05,10.05,0,0,0-4.91,1.55A22.14,22.14,0,0,0,224.08,35L220,62.54H207.84l4-26.53a.8.8,0,0,0,0-.24c.1-.89.15-1.57.18-2a5.29,5.29,0,0,0-1-3.51,3.82,3.82,0,0,0-3-1.18,10.24,10.24,0,0,0-5.19,1.61,23.1,23.1,0,0,0-5.35,4.63l-4,27.23Z"/><path class="cls-2" d="M282.1,62.54l.43-3.27a24.67,24.67,0,0,1-5.82,3.09,17.59,17.59,0,0,1-5.7,1,13.21,13.21,0,0,1-10.59-4.64c-2.62-3.11-3.91-7.31-3.91-12.59a25.42,25.42,0,0,1,2.12-10.37,22.74,22.74,0,0,1,6.16-8.2,25.64,25.64,0,0,1,10.11-5.21q5.81-1.55,18.56-1.53h6.85l-6.1,41.75Zm1.8-12,2.87-19.79-.9-.06c-.36,0-.84,0-1.53,0-4.87,0-8.73,1.41-11.58,4.2s-4.28,6.63-4.28,11.38a8.59,8.59,0,0,0,1.66,5.56,5.49,5.49,0,0,0,4.47,2,13.48,13.48,0,0,0,4.56-.79,20.56,20.56,0,0,0,4.73-2.48"/></g></svg>