<svg id="text" xmlns="http://www.w3.org/2000/svg" xmlns:xlink="http://www.w3.org/1999/xlink" viewBox="0 0 693.79 157.61">
  <path id="MI" d="M81.61,81.12H60l-19.32,27-9.81-27H9.32L1,128.33H18.53l4-22.46,8.92,22.46H42.88l16.84-22.46-4,22.46H73.29Zm20.23,0H84.31L76,128.33H93.52Z" style="fill: #fff;fill-opacity: 0;stroke: #00ffc2;stroke-linejoin: round;stroke-width: 2px;fill-rule: evenodd"/>
  <path id="_ESTADIO" data-name=" ESTADIO" d="M186.84,101.89,190.69,80H109.85L96.36,156.51H177.2l3.86-21.85H128.62l1.25-7.1h52.44L185.59,109H133.15l1.25-7.1Zm-2.7,27.64c-4,22.72,12.53,28.08,43.89,28.08s49.78-5.36,53.5-26.44c3.52-20-14.79-22.07-44.73-23.27-16.49-.66-19.24-.55-18.72-3.5s3.36-3.61,16.7-3.61c13.87,0,20.27.88,19.56,4.92h28.4c3.45-19.56-12.1-26.77-41.93-26.77-30.15,0-47.92,7.21-50.89,24-3.14,17.81,9.08,23.49,43.41,24.58,17.82.55,20.26,1,19.68,4.26-.5,2.84-3.21,3.93-20,3.93-18,0-21.08-2.51-20.42-6.22ZM384.49,80H290.54l-4.24,24h32.77l-9.24,52.44h28.4l9.24-52.44h32.78ZM430,156.51h31.25L443.05,80H400.88l-45.17,76.47H387l7.68-13.76h32.55Zm-24.48-33.43,13-23.38,4.72,23.38Zm128.2-43H476.91l-13.49,76.47h56.82c18.46,0,38-12.23,42.57-38.23S552.19,80,533.72,80Zm-18,52.44H496.07l5-28.41h19.66c6.12,0,16.17,0,13.67,14.2s-12.56,14.21-18.67,14.21ZM601.23,80h-28.4l-13.49,76.47h28.4Zm36.58,77.57c33.54,0,50.34-12.9,55-39.44s-7.61-39.23-41.15-39.23-50.31,12.68-55,39.23,7.47,39.44,41.12,39.44Zm4.24-24c-16.72,0-18.4-7.21-16.95-15.4S630.62,103,647.44,103s18.39,7.21,17,15.18-5.66,15.4-22.38,15.4Z" style="fill: #00ffc2;fill-rule: evenodd"/>
  <path id="CASA_" data-name="CASA " d="M191.17,39.22c-4.7,26.66,7.47,39.44,41.11,39.44,30.7,0,48.45-10.81,53.93-35.07H257.15c-2.38,7.32-8.61,11-20.63,11-16.71,0-18.39-7.21-17-15.4S225.09,24,241.92,24c12,0,17,3.61,16.77,10.82h29.06C290.81,10.71,276.75,0,246.15,0,212.51,0,195.85,12.67,191.17,39.22ZM346.86,77.57h31.25L359.9,1.09H317.74L272.57,77.57h31.25l7.67-13.77H344ZM322.38,44.14l13-23.38,4.73,23.38Zm55,6.44c-4,22.73,12.52,28.08,43.88,28.08s49.78-5.35,53.5-26.44C478.3,32.23,460,30.15,430.05,29c-16.49-.65-19.24-.55-18.72-3.5s3.36-3.6,16.7-3.6c13.87,0,20.27.87,19.56,4.91H476C479.44,7.21,463.89,0,434.06,0c-30.15,0-47.92,7.21-50.89,24-3.14,17.81,9.08,23.49,43.41,24.59,17.82.54,20.25,1,19.68,4.26-.5,2.84-3.21,3.93-20,3.93-18,0-21.07-2.51-20.42-6.23Zm162.82,27h31.25L553.27,1.09H511.1L465.93,77.57h31.25l7.67-13.77h32.56ZM515.75,44.14l13-23.38,4.73,23.38ZM583.56,57.9l-3.47,19.67h9.62L578,101.6h11.69l16.58-24,3.47-19.67Z" style="fill: #fff;fill-rule: evenodd"/>
  <path id="MI-2" d="M167.1,29.68H145.52l-19.32,27-9.81-27H94.81L86.49,76.89H104l4-22.46,8.92,22.46h11.47l16.84-22.46-4,22.46h17.53Zm20.23,0H169.8l-8.32,47.21H179Z" style="fill: #fff;fill-opacity: 0;stroke: #fff;stroke-linejoin: round;stroke-width: 2px;fill-rule: evenodd"/>
</svg>
